# AST/ASF file generated using VICON BodyLanguage
# -----------------------------------------------
:version 1.10
:name VICON
:units
  mass 1.0
  length 0.45
  angle deg
:documentation
   .ast/.asf automatically generated from VICON data using
   VICON BodyBuilder and BodyLanguage model FoxedUp or BRILLIANT.MOD
:root
   order TX TY TZ RX RY RZ
   axis XYZ
   position 0 0 0  
   orientation 0 0 0 
:bonedata
  begin
     id 1 
     name lhipjoint
     direction 0.561001 -0.76473 0.316963 
     length 2.4722 
     axis 0 0 0  XYZ
  end
  begin
     id 2 
     name lfemur
     direction 0.34202 -0.939693 0  
     length 7.59403  
     axis 0 0 20  XYZ
    dof rx ry rz
    limits (-160.0 20.0)
           (-70.0 70.0)
           (-60.0 70.0)
  end
  begin
     id 3 
     name ltibia
     direction 0.34202 -0.939693 0   
     length 7.89655   
     axis 0 0 20   XYZ
    dof rx
    limits (-10.0 170.0)
  end
  begin
     id 4 
     name lfoot
     direction 0.061296 -0.168409 0.98381   
     length 2.73287   
     axis -90 7.62852e-016 20   XYZ
    dof rx rz
    limits (-45.0 90.0)
           (-70.0 20.0)
  end
  begin
     id 5 
     name ltoes
     direction 1.53547e-011 -4.21984e-011 1   
     length 1.37057   
     axis -90 7.62852e-016 20   XYZ
    dof rx
    limits (-90.0 20.0)
  end
  begin
     id 6 
     name rhipjoint
     direction -0.559611 -0.765599 0.317323   
     length 2.46939  
     axis 0 0 0  XYZ 
  end
  begin
     id 7 
     name rfemur
     direction -0.34202 -0.939693 0   
     length 7.53712   
     axis 0 0 -20   XYZ
    dof rx ry rz
    limits (-160.0 20.0)
           (-70.0 70.0)
           (-70.0 60.0)
  end
  begin
     id 8 
     name rtibia
     direction -0.34202 -0.939693 0   
     length 8.12549   
     axis 0 0 -20   XYZ
    dof rx
    limits (-10.0 170.0)
 end
 begin
     id 9 
     name rfoot
     direction -0.066984 -0.184037 0.980634   
     length 2.67541  
     axis -90 -7.62852e-016 -20   XYZ
    dof rx rz
    limits (-45.0 90.0)
           (-20.0 70.0)
  end
  begin
     id 10 
     name rtoes
     direction -1.53549e-011 -4.21786e-011 1   
     length 1.34085   
     axis -90 -7.62852e-016 -20   XYZ
    dof rx
    limits (-90.0 20.0)
  end
  begin
     id 11 
     name lowerback
     direction -0.0522728 0.992594 -0.109658   
     length 2.05633   
     axis 0 0 0   XYZ
    dof rx ry rz
    limits (-20.0 45.0)
           (-30.0 30.0)
           (-30.0 30.0)
  end
  begin
     id 12 
     name upperback
     direction 0.00589338 0.999977 0.00335704   
     length 2.05845   
     axis 0 0 0   XYZ
    dof rx ry rz
    limits (-20.0 45.0)
           (-30.0 30.0)
           (-30.0 30.0)
  end
  begin
     id 13 
     name thorax
     direction 0.0292928 0.998059 0.0549487   
     length 2.09281   
     axis 0 0 0   XYZ
    dof rx ry rz
    limits (-20.0 45.0)
           (-30.0 30.0)
           (-30.0 30.0)
  end
  begin
     id 14 
     name lowerneck
     direction 0.0356368 0.980775 0.191858   
     length 1.84767   
     axis 0 0 0   XYZ
    dof rx ry rz
    limits (-20.0 45.0)
           (-30.0 30.0)
           (-30.0 30.0)
  end
  begin
     id 15 
     name upperneck
     direction -0.0227605 0.98931 -0.14404   
     length 1.89582   
     axis 0 0 0   XYZ
    dof rx ry rz
    limits (-20.0 45.0)
           (-30.0 30.0)
           (-30.0 30.0)
  end
  begin
     id 16
     name head
     direction -0.00932985 0.997511 -0.0698904  
     length 1.90213  
     axis 0 0 0   XYZ
    dof rx ry rz
    limits (-20.0 45.0)
           (-30.0 30.0)
           (-30.0 30.0)
  end
  begin
     id 17 
     name lclavicle
     direction 0.873442 0.479511 0.0846686  
     length 3.41193  
     axis 0 0 0   XYZ
    dof ry rz
    limits (-20.0 10.0)
           (0.0 20.0)
  end
  begin
     id 18 
     name lhumerus
     direction 1 -4.4897e-011 -5.62117e-018   
     length 5.59864   
     axis 180 -30 -90   XYZ
    dof rx ry rz
    limits (-60.0 90.0)
           (-90.0 90.0)
           (-90.0 90.0)
  end
  begin
     id 19
     name lradius
     direction 1 -4.48966e-011 -6.26295e-027   
     length 3.59542   
     axis 180 -30 -90   XYZ
    dof rx
    limits (-10.0 170.0)
  end
  begin
     id 20
     name lwrist
     direction 1 -4.48947e-011 -1.74096e-026   
     length 1.79771   
     axis 1.04567e-014 90 90   XYZ
    dof ry
    limits (-180.0 0.0)
 end
  begin
     id 21 
     name lhand
     direction 1 -4.49085e-011 -3.48469e-026   
     length 0.572014   
     axis 2.22196e-014 90 90   XYZ
    dof rx rz
    limits (-90.0 90.0)
           (-45.0 45.0)
  end
  begin
     id 22 
     name lfingers
     direction 1 -4.48884e-011 -6.96135e-026   
     length 0.461173   
     axis 4.44383e-014 90 90   XYZ
    dof rx
    limits (0.0 90.0)
  end
  begin
     id 23
     name lthumb
     direction 0.707107 -6.34976e-011 0.707107   
     length 0.662154   
     axis -90 45 -5.4397e-014   XYZ
    dof rx rz
    limits (-45.0 45.0)
           (-45.0 45.0)
  end
  begin
     id 24 
     name rclavicle
     direction -0.890242 0.443271 0.104786   
     length 3.46753  
     axis 0 0 0   XYZ 
    dof ry rz
    limits (-10.0 20.0)
           (-20.0 0.0)
  end
  begin
     id 25 
     name rhumerus
     direction -1 -4.48963e-011 -5.41723e-018  
     length 5.8094   
     axis 180 30 90   XYZ
    dof rx ry rz
    limits (-90.0 60.0)
           (-90.0 90.0)
           (-90.0 90.0)
  end
  begin
     id 26 
     name rradius
     direction -1 -4.48958e-011 -6.51059e-027   
     length 3.66953   
     axis 180 30 90   XYZ
    dof rx
    limits (-10.0 170.0)
  end
  begin
     id 27 
     name rwrist
     direction -1 -4.48975e-011 -1.74124e-026   
     length 1.83476   
     axis 1.04567e-014 -90 -90   XYZ
    dof ry
    limits (-180.0 0.0)
  end
  begin
     id 28
     name rhand
     direction -1 -4.49013e-011 -3.48326e-026   
     length 0.57843   
     axis 2.22196e-014 -90 -90   XYZ
    dof rx rz
    limits (-90.0 90.0)
           (-45.0 45.0)
  end
  begin
     id 29
     name rfingers
     direction -1 -4.49023e-011 -6.9669e-026   
     length 0.466345   
     axis 4.44383e-014 -90 -90   XYZ
    dof rx
    limits (0.0 90.0)
  end
  begin
     id 30
     name rthumb
     direction -0.707107 -6.34926e-011 0.707107   
     length 0.669581   
     axis -90 -45 5.4397e-014   XYZ
    dof rx rz
    limits (-45.0 45.0)
           (-45.0 45.0)
  end
:hierarchy
  begin
    root lhipjoint rhipjoint lowerback
    lhipjoint lfemur
    lfemur ltibia
    ltibia lfoot
    lfoot ltoes
    rhipjoint rfemur
    rfemur rtibia
    rtibia rfoot
    rfoot rtoes
    lowerback upperback
    upperback thorax
    thorax lowerneck lclavicle rclavicle
    lowerneck upperneck
    upperneck head
    lclavicle lhumerus
    lhumerus lradius
    lradius lwrist
    lwrist lhand lthumb
    lhand lfingers
    rclavicle rhumerus
    rhumerus rradius
    rradius rwrist
    rwrist rhand rthumb
    rhand rfingers
  end

#!OML:ASF H:\SkateBoarding\Project 1\Capture day 1\Session 1\Skater.ASF
:FULLY-SPECIFIED
:DEGREES
426
root 4.61625 19.4724 43.0257 -21.185 70.2328 -27.8468
lowerback 8.04174 -3.52046 -5.62904
upperback -2.65432 -5.3829 -1.31398
thorax -6.91932 -2.41102 2.49297
lowerneck -15.4167 -7.21335 -5.80975
upperneck 27.1403 -10.6815 7.44593
head 12.249 -4.36956 2.14716
rclavicle 1.11071e-014 -3.49861e-014
rhumerus -50.5826 15.1549 -99.1461
rradius 65.2137
rwrist -8.80043
rhand -39.3731 9.77821
rfingers 7.12502
rthumb -12.3634 -19.8362
lclavicle 1.11071e-014 -3.49861e-014
lhumerus -20.9334 1.05154 82.6012
lradius 17.3952
lwrist -3.50349
lhand -30.6146 21.3912
lfingers 7.12502
lthumb -3.911 51.3351
rfemur -21.6096 -3.87088 26.7937
rtibia 43.1179
rfoot -33.3945 -0.58301
rtoes 2.56328
lfemur -13.4021 -7.76436 -5.44002
ltibia 46.3957
lfoot -35.1838 6.31898
ltoes -21.534
427
root 4.62017 19.5056 43.3344 -22.2822 70.7372 -29.0127
lowerback 8.06737 -3.55814 -5.64777
upperback -2.64031 -5.4408 -1.40645
thorax -6.92218 -2.43991 2.41506
lowerneck -15.3942 -7.2862 -5.84456
upperneck 27.1593 -10.815 7.56876
head 12.2742 -4.4163 2.17783
rclavicle 1.35671e-014 3.49861e-014
rhumerus -50.9203 14.8082 -99.4821
rradius 64.7704
rwrist -9.2769
rhand -39.2654 9.51786
rfingers 7.12502
rthumb -12.2595 -20.1028
lclavicle 1.35671e-014 3.49861e-014
lhumerus -21.1076 6.41751 80.126
lradius 17.6549
lwrist -4.15219
lhand -33.1772 22.9005
lfingers 7.12502
lthumb -6.38524 52.7842
rfemur -21.3066 -3.26438 26.7344
rtibia 42.7308
rfoot -32.8389 -0.288859
rtoes 3.06393
lfemur -13.32 -8.26203 -5.15918
ltibia 45.8743
lfoot -34.8124 6.45122
ltoes -21.3737
428
root 4.62375 19.53 43.6409 -23.3562 71.2458 -30.1574
lowerback 8.09273 -3.60674 -5.66938
upperback -2.62697 -5.51323 -1.49293
thorax -6.92381 -2.47569 2.34683
lowerneck -15.3794 -7.33841 -5.869
upperneck 27.1672 -10.9051 7.64073
head 12.2887 -4.44939 2.19449
rclavicle -3.15074e-014 0
rhumerus -51.2521 14.5594 -99.804
rradius 64.3257
rwrist -9.76084
rhand -39.137 9.24358
rfingers 7.12502
rthumb -12.1357 -20.3844
lclavicle -3.15074e-014 0
lhumerus -21.5975 10.1543 78.0979
lradius 18.5317
lwrist -2.58667
lhand -35.8007 24.4212
lfingers 7.12502
lthumb -8.91745 54.2128
rfemur -21.0165 -2.67811 26.6462
rtibia 42.3589
rfoot -32.2014 0.04185
rtoes 3.5026
lfemur -13.2419 -8.8461 -4.89933
ltibia 45.3572
lfoot -34.5155 6.61383
ltoes -21.1747
429
root 4.62929 19.5586 43.9465 -24.413 71.7631 -31.2883
lowerback 8.11397 -3.6593 -5.69332
upperback -2.61736 -5.59083 -1.5763
thorax -6.92633 -2.51371 2.28364
lowerneck -15.357 -7.37639 -5.88296
upperneck 27.1632 -10.9625 7.6661
head 12.2902 -4.47348 2.19745
rclavicle 6.71395e-014 -3.49861e-014
rhumerus -51.589 14.3757 -100.106
rradius 63.89
rwrist -10.2262
rhand -38.9953 8.97071
rfingers 7.12502
rthumb -11.9991 -20.6653
lclavicle 6.71395e-014 -3.49861e-014
lhumerus -22.2447 12.6373 76.4322
lradius 19.8155
lwrist 0.787439
lhand -38.2608 25.5175
lfingers 7.12502
lthumb -11.2909 55.1936
rfemur -20.6917 -2.13338 26.5428
rtibia 41.9562
rfoot -31.5412 0.447907
rtoes 3.97822
lfemur -13.1417 -9.49861 -4.66068
ltibia 44.8195
lfoot -34.2901 6.78012
ltoes -20.9486
430
root 4.63541 19.5829 44.2506 -25.4586 72.2932 -32.4135
lowerback 8.12899 -3.71674 -5.72689
upperback -2.61237 -5.67513 -1.64937
thorax -6.92796 -2.55433 2.23703
lowerneck -15.3306 -7.40059 -5.89372
upperneck 27.1517 -10.9852 7.6421
head 12.2811 -4.48853 2.18715
rclavicle 3.16068e-014 -3.18055e-015
rhumerus -51.9345 14.2596 -100.38
rradius 63.47
rwrist -10.6676
rhand -38.8432 8.72296
rfingers 7.12502
rthumb -11.8524 -20.9216
lclavicle 3.16068e-014 -3.18055e-015
lhumerus -22.9536 14.3533 75.018
lradius 21.3378
lwrist 5.38718
lhand -40.3759 26
lfingers 7.12502
lthumb -13.3301 55.5536
rfemur -20.359 -1.66303 26.4326
rtibia 41.5424
rfoot -30.9021 0.936494
rtoes 4.48789
lfemur -13.0541 -10.2021 -4.43918
ltibia 44.3022
lfoot -34.1345 6.92341
ltoes -20.6997
431
root 4.64206 19.6027 44.5535 -26.5051 72.8386 -33.5483
lowerback 8.12833 -3.77424 -5.77896
upperback -2.6097 -5.75934 -1.7043
thorax -6.91955 -2.59411 2.21831
lowerneck -15.3001 -7.41835 -5.91041
upperneck 27.1339 -10.981 7.56724
head 12.2631 -4.49906 2.16326
rclavicle 1.74931e-014 3.49861e-014
rhumerus -52.2844 14.2 -100.605
rradius 63.0689
rwrist -11.0648
rhand -38.6941 8.50883
rfingers 7.12502
rthumb -11.7087 -21.144
lclavicle 1.74931e-014 3.49861e-014
lhumerus -23.6625 15.6507 73.7802
lradius 22.9629
lwrist 10.6671
lhand -41.9572 25.7686
lfingers 7.12502
lthumb -14.854 55.2162
rfemur -20.0101 -1.29404 26.3278
rtibia 41.0874
rfoot -30.322 1.49795
rtoes 5.09404
lfemur -12.9791 -10.9394 -4.23248
ltibia 43.7916
lfoot -34.0339 7.03774
ltoes -20.4423
432
root 4.64942 19.6184 44.8551 -27.5643 73.3983 -34.7057
lowerback 8.11616 -3.83366 -5.83772
upperback -2.61334 -5.84556 -1.7466
thorax -6.90917 -2.63433 2.21599
lowerneck -15.2698 -7.42928 -5.93628
upperneck 27.1221 -10.9533 7.45521
head 12.2433 -4.50458 2.13091
rclavicle -2.65874e-014 1.90833e-014
rhumerus -52.6429 14.1818 -100.792
rradius 62.6837
rwrist -11.4067
rhand -38.5488 8.33431
rfingers 7.12502
rthumb -11.5686 -21.3264
lclavicle -2.65874e-014 1.90833e-014
lhumerus -24.3464 16.679 72.657
lradius 24.5955
lwrist 16.1783
lhand -42.8111 25.0127
lfingers 7.12502
lthumb -15.6764 54.3977
rfemur -19.6602 -1.04247 26.2401
rtibia 40.615
rfoot -29.8292 2.0962
rtoes 5.72618
lfemur -12.9298 -11.6873 -4.03923
ltibia 43.312
lfoot -33.986 7.10525
ltoes -20.1643
433
root 4.65773 19.6313 45.1557 -28.6307 73.9732 -35.8791
lowerback 8.08751 -3.89037 -5.91489
upperback -2.62083 -5.92814 -1.77456
thorax -6.89036 -2.67198 2.23697
lowerneck -15.2366 -7.43942 -5.96892
upperneck 27.1146 -10.9117 7.30676
head 12.2215 -4.50916 2.08848
rclavicle -8.23962e-014 1.27222e-014
rhumerus -53.004 14.1939 -100.932
rradius 62.3106
rwrist -11.6919
rhand -38.4285 8.20265
rfingers 7.12502
rthumb -11.4525 -21.4645
lclavicle -8.23962e-014 1.27222e-014
lhumerus -24.9732 17.588 71.6142
lradius 26.1365
lwrist 21.4631
lhand -42.8354 24.0707
lfingers 7.12502
lthumb -15.6998 53.4538
rfemur -19.3148 -0.920815 26.1734
rtibia 40.1245
rfoot -29.459 2.68839
rtoes 6.38064
lfemur -12.905 -12.4208 -3.86467
ltibia 42.8538
lfoot -33.9594 7.15115
ltoes -19.9344
434
root 4.66725 19.6426 45.4561 -29.7191 74.559 -37.0767
lowerback 8.04694 -3.93761 -6.0107
upperback -2.63195 -5.99869 -1.79324
thorax -6.86655 -2.70289 2.27537
lowerneck -15.1921 -7.45473 -6.01007
upperneck 27.1154 -10.8687 7.13467
head 12.1995 -4.51693 2.03932
rclavicle 1.4064e-014 6.36111e-015
rhumerus -53.3664 14.2087 -101.025
rradius 61.9427
rwrist -11.9161
rhand -38.3307 8.1126
rfingers 7.12502
rthumb -11.3582 -21.5598
lclavicle 1.4064e-014 6.36111e-015
lhumerus -25.5232 18.3474 70.6635
lradius 27.5288
lwrist 26.2724
lhand -42.1969 23.3335
lfingers 7.12502
lthumb -15.0848 52.7639
rfemur -18.9743 -0.922922 26.1369
rtibia 39.6194
rfoot -29.2299 3.20039
rtoes 6.97987
lfemur -12.8911 -13.1255 -3.70766
ltibia 42.4014
lfoot -33.9297 7.18114
ltoes -19.728
435
root 4.67819 19.6539 45.756 -30.8236 75.1503 -38.2959
lowerback 7.9917 -3.97453 -6.11882
upperback -2.64677 -6.05536 -1.80745
thorax -6.83749 -2.72654 2.3223
lowerneck -15.1386 -7.47629 -6.06017
upperneck 27.1264 -10.83 6.95295
head 12.1801 -4.52853 1.98775
rclavicle 3.80176e-014 -1.59028e-014
rhumerus -53.7223 14.2082 -101.078
rradius 61.5687
rwrist -12.0745
rhand -38.2631 8.05443
rfingers 7.12502
rthumb -11.2931 -21.6215
lclavicle 3.80176e-014 -1.59028e-014
lhumerus -25.9783 18.9384 69.8053
lradius 28.7183
lwrist 30.3801
lhand -40.9963 22.9595
lfingers 7.12502
lthumb -13.928 52.473
rfemur -18.651 -1.03664 26.1318
rtibia 39.0973
rfoot -29.1597 3.53832
rtoes 7.4164
lfemur -12.8987 -13.7865 -3.56938
ltibia 41.966
lfoot -33.8827 7.20718
ltoes -19.5534
436
root 4.69041 19.6663 46.0555 -31.9327 75.7416 -39.5264
lowerback 7.92539 -4.00254 -6.2345
upperback -2.66651 -6.10001 -1.81976
thorax -6.80719 -2.74391 2.37304
lowerneck -15.08 -7.5035 -6.11633
upperneck 27.1512 -10.7974 6.76704
head 12.1659 -4.54353 1.93494
rclavicle 1.72446e-014 9.54166e-015
rhumerus -54.0664 14.1942 -101.097
rradius 61.1797
rwrist -12.1853
rhand -38.2203 8.02111
rfingers 7.12502
rthumb -11.2518 -21.6571
lclavicle 1.72446e-014 9.54166e-015
lhumerus -26.3308 19.3261 69.0478
lradius 29.6845
lwrist 33.6841
lhand -39.417 22.9855
lfingers 7.12502
lthumb -12.4057 52.5974
rfemur -18.3625 -1.23906 26.1544
rtibia 38.5738
rfoot -29.252 3.647
rtoes 7.63072
lfemur -12.904 -14.3947 -3.45248
ltibia 41.4865
lfoot -33.7788 7.2668
ltoes -19.4201
